<?xml version="1.0" encoding="UTF-8"?>
<!-- Generator: Adobe Illustrator 22.1.0, SVG Export Plug-In . SVG Version: 6.00 Build 0)  -->
<svg version="1.1" id="Layer_1" xmlns="http://www.w3.org/2000/svg" xmlns:xlink="http://www.w3.org/1999/xlink" x="0px" y="0px" viewBox="0 0 28 35" style="enable-background:new 0 0 28 35;" xml:space="preserve"><link xmlns="" type="text/css" rel="stylesheet" id="dark-mode-custom-link"/><link xmlns="" type="text/css" rel="stylesheet" id="dark-mode-general-link"/><style xmlns="" lang="en" type="text/css" id="dark-mode-custom-style"/><style xmlns="" lang="en" type="text/css" id="dark-mode-native-style"/>
<g>
	<path d="M6.9,16.5l-1,1.2l-0.4-0.4c-0.4-0.4-1-0.5-1.4-0.1c-0.4,0.4-0.5,1-0.1,1.4l1.9,2.2l2.5-3c0.4-0.4,0.3-1.1-0.1-1.4   C7.8,16,7.2,16.1,6.9,16.5z"/>
	<path d="M15,17.7H9.7c-0.6,0-1,0.4-1,1s0.4,1,1,1H15c0.6,0,1-0.4,1-1S15.6,17.7,15,17.7z"/>
	<path d="M6.9,21.6l-1,1.2l-0.4-0.4c-0.4-0.4-1-0.5-1.4-0.1c-0.4,0.4-0.5,1-0.1,1.4l1.9,2.2l2.5-3c0.4-0.4,0.3-1.1-0.1-1.4   C7.8,21.2,7.2,21.2,6.9,21.6z"/>
	<path d="M15,22.9H9.7c-0.6,0-1,0.4-1,1s0.4,1,1,1H15c0.6,0,1-0.4,1-1S15.6,22.9,15,22.9z"/>
	<path d="M6.9,26.8l-1,1.2l-0.4-0.4c-0.4-0.4-1-0.5-1.4-0.1c-0.4,0.4-0.5,1-0.1,1.4L5.8,31l2.5-3c0.4-0.4,0.3-1.1-0.1-1.4   C7.8,26.3,7.2,26.4,6.9,26.8z"/>
	<path d="M15,28H9.7c-0.6,0-1,0.4-1,1s0.4,1,1,1H15c0.6,0,1-0.4,1-1S15.6,28,15,28z"/>
	<path d="M19.4,0.9c-4.3,0-7.8,3.2-8.4,7.3H0.1V35h20.1V17.9c4.3-0.4,7.7-4,7.7-8.5C27.9,4.8,24.1,0.9,19.4,0.9z M2.1,33V10.3H11   c0.4,3.9,3.4,7,7.2,7.5V33H2.1z M19.4,15.8c-3.5,0-6.3-2.8-6.3-6.3s2.8-6.3,6.3-6.3s6.3,2.8,6.3,6.3S22.9,15.8,19.4,15.8z"/>
	<polygon points="20.5,5.9 18.4,5.9 18.4,8.6 15.7,8.6 15.7,10.7 18.4,10.7 18.4,13.4 20.5,13.4 20.5,10.7 23.2,10.7 23.2,8.6    20.5,8.6  "/>
</g>
</svg>